<svg xmlns="http://www.w3.org/2000/svg">
    <!-- Time Icon-->
    <symbol id="time" viewBox="0 0 24 24">
        <circle cx="12" cy="12" r="9" stroke="currentColor" fill="none" stroke-width="2" />
        <path d="M12 7v5l3.5 0" stroke="currentColor" fill="none" stroke-width="2"
            stroke-linecap="round" />
    </symbol>

    <!-- Trending Up Icon-->
    <symbol id="trendingUp" viewBox="0 0 24 24">
        <path d="M3 17l6 -6l4 4l8 -8" stroke="currentColor" fill="none" stroke-width="2"
            stroke-linecap="round" stroke-linejoin="round" />
        <path d="M14 7l7 0l0 7" stroke="currentColor" fill="none" stroke-width="2"
            stroke-linecap="round" stroke-linejoin="round" />
    </symbol>

    <!--Star
    Icon-->
    <symbol id="star" viewBox="0 0 24 24">
        <path stroke="none" d="M0 0h24v24H0z" fill="none" />
        <path
            d="M12 17.75l-6.172 3.245l1.179 -6.873l-5 -4.867l6.9 -1l3.086 -6.253l3.086 6.253l6.9 1l-5 4.867l1.179 6.873l-6.158 -3.245"
            stroke="currentColor" fill="none" stroke-width="2" stroke-linecap="round"
            stroke-linejoin="round" />
    </symbol>

    <!-- Xbox Icon-->

    <symbol id="brand-xbox" width="12" height="12"
        fill="#000" viewBox="0 0 24 24">
        <path stroke-width="1.5" fill="currentColor"
            d="M10.803 23.95a12 12 0 0 1-5.328-1.89c-1.347-.877-1.651-1.238-1.651-1.958 0-1.448 1.593-3.984 4.318-6.875 1.547-1.642 3.704-3.567 3.936-3.515.453.102 4.077 3.635 5.433 5.297 2.145 2.63 3.132 4.783 2.631 5.743-.381.73-2.745 2.156-4.48 2.703-1.432.452-3.311.644-4.859.495m-8.799-5.355C.884 16.88.318 15.191.045 12.745c-.09-.808-.057-1.268.205-2.924.327-2.066 1.504-4.456 2.918-5.926.602-.625.656-.64 1.389-.394.893.3 1.845.957 3.32 2.292l.86.778-.469.578c-2.184 2.68-4.488 6.48-5.358 8.83-.473 1.279-.663 2.561-.459 3.095.137.36.01.225-.45-.479Zm19.652.293c.11-.54-.029-1.53-.357-2.53-.71-2.165-3.083-6.193-5.262-8.93l-.686-.863.741-.68c.969-.89 1.643-1.423 2.37-1.876.572-.355 1.39-.672 1.742-.672.217 0 .98.792 1.597 1.656a12.6 12.6 0 0 1 2.015 4.653c.229 1.092.249 3.43.036 4.518a14.3 14.3 0 0 1-.9 2.84c-.269.59-.936 1.734-1.23 2.106-.15.192-.15.19-.065-.222ZM11.003 2.928c-1.006-.51-2.557-1.057-3.415-1.204a6 6 0 0 0-1.138-.065c-.707.036-.675 0 .459-.537a11.7 11.7 0 0 1 2.796-.93c1.2-.254 3.459-.255 4.641-.008 1.275.27 2.78.829 3.627 1.35l.252.155-.578-.03c-1.149-.057-2.82.405-4.617 1.28-.541.264-1.014.474-1.048.468a18 18 0 0 1-.981-.479Z" />
    </symbol>

    <!-- PlayStation Icon -->
    <symbol id="brand-play" width="12"
        height="12" fill="#000" viewBox="0 0 24 24">
        <path stroke-width="1.5" fill="currentColor"
            d="M23.787 17.177c-.47.592-1.618 1.014-1.618 1.014l-8.545 3.069v-2.264l6.288-2.24c.714-.255.824-.618.243-.807-.579-.19-1.627-.135-2.34.12l-4.19 1.476v-2.349l.241-.08s1.21-.43 2.913-.619c1.702-.187 3.787.026 5.424.645 1.845.585 2.052 1.443 1.584 2.034m-9.35-3.851v-5.79c0-.68-.124-1.306-.761-1.483-.49-.157-.793.297-.793.975v14.496l-3.908-1.24V3c1.661.309 4.082 1.038 5.384 1.478 3.311 1.135 4.433 2.55 4.433 5.737 0 3.107-1.917 4.284-4.355 3.108ZM1.803 18.761C-.09 18.224-.405 17.114.457 16.475c.798-.591 2.154-1.035 2.154-1.035l5.606-1.995v2.272L4.18 17.164c-.711.255-.821.616-.242.807.579.189 1.628.135 2.34-.12l1.935-.704v2.034l-.385.065a12.7 12.7 0 0 1-6.027-.485Z" />
    </symbol>

    <!-- Nintendo Icon -->

    <symbol id="brand-nintendo" width="12"
        height="12" fill="#000" viewBox="0 0 24 24">
        <path stroke-width="1.5" fill="currentColor"
            d="M14.01 12.008c0-6.57.015-11.958.035-11.973C14.058.014 15.054 0 16.246 0c1.73 0 2.265.015 2.615.075 2.595.447 4.567 2.4 5.06 4.989.068.363.079 1.214.079 6.915 0 6.09.007 6.806-.185 7.464-.033.114-.072.225-.12.363a6.21 6.21 0 0 1-5.139 4.15c-.475.05-4.333.07-4.467.02-.075-.03-.079-1.128-.079-11.968m7.012.403a2.43 2.43 0 0 0-1.669-1.551 2.415 2.415 0 0 0-2.907 1.61 2.85 2.85 0 0 0-.021 1.402 2.445 2.445 0 0 0 2.928 1.66c.765-.203 1.362-.755 1.665-1.541.165-.428.17-1.113.004-1.58M5.565 4.976c-.312.06-.789.298-1.043.522-.522.451-.78 1.093-.74 1.848.019.393.044.498.203.816a2.26 2.26 0 0 0 1.068 1.072c.333.165.417.185.851.2.392.015.531 0 .795-.09 1.079-.363 1.73-1.41 1.545-2.484-.213-1.278-1.425-2.133-2.679-1.884" />
        <path stroke-width="1.5" fill="currentColor"
            d="M5.137.08a6.21 6.21 0 0 0-4.92 4.522C0 5.442-.015 5.934.007 12.45c.016 5.985.022 6.123.12 6.585.553 2.49 2.323 4.266 4.837 4.853.33.074.745.09 3.435.104 2.784.018 3.072.014 3.145-.06.075-.074.08-1.034.08-11.91 0-8.06-.016-11.858-.05-11.927-.05-.09-.135-.095-3.045-.09-2.367.006-3.078.02-3.39.075Zm4.5 21.997-2.025-.024c-1.863-.02-2.062-.03-2.434-.125a4.22 4.22 0 0 1-3.12-3.25c-.111-.503-.111-12.869-.006-13.36a4.28 4.28 0 0 1 2.574-3.076c.657-.264.96-.294 3.087-.3l1.923-.004v20.139Z" />
    </symbol>

    <!-- PC Icon-->

    <symbol id="brand-pc" width="12"
        height="12"
        fill="#000" viewBox="0 0 24 24">
        <path stroke-width="1.5" fill="currentColor"
            d="M12 1.5A1.5 1.5 0 0 1 13.5 0h9A1.5 1.5 0 0 1 24 1.5v21a1.5 1.5 0 0 1-1.5 1.5h-9a1.5 1.5 0 0 1-1.5-1.5zm1.5 20.25a.75.75 0 1 0 1.5 0 .75.75 0 0 0-1.5 0m3 0a.75.75 0 1 0 1.5 0 .75.75 0 0 0-1.5 0M14.25 1.5a.75.75 0 0 0 0 1.5h7.5a.75.75 0 0 0 0-1.5zm-.75 3.75a.75.75 0 0 0 .75.75h7.5a.75.75 0 0 0 0-1.5h-7.5a.75.75 0 0 0-.75.75M2.25 3A2.25 2.25 0 0 0 0 5.25v10.5A2.25 2.25 0 0 0 2.25 18H9v3h-.75a.75.75 0 0 0 0 1.5h2.25v-6H2.25a.75.75 0 0 1-.75-.75V5.25a.75.75 0 0 1 .75-.75h8.25V3z" />
    </symbol>


    <!-- <svg xmlns="http://www.w3.org/2000/svg" width="24" height="24" viewBox="0 0 24 24"
        fill="currentColor" class="icon icon-tabler icons-tabler-filled icon-tabler-star">
        <path stroke="none" d="M0 0h24v24H0z" fill="none" />
        <path
            d="M8.243 7.34l-6.38 .925l-.113 .023a1 1 0 0 0 -.44 1.684l4.622 4.499l-1.09 6.355l-.013 .11a1 1 0 0
    0 1.464 .944l5.706 -3l5.693 3l.1 .046a1 1 0 0 0 1.352 -1.1l-1.091 -6.355l4.624 -4.5l.078 -.085a1
    1 0 0 0 -.633 -1.62l-6.38 -.926l-2.852 -5.78a1 1 0 0 0 -1.794 0l-2.853 5.78z" />
    </svg> -->

</svg>