<svg xmlns="http://www.w3.org/2000/svg">
    <!-- Time Icon-->
    <symbol id="time" viewBox="0 0 24 24">
        <circle cx="12" cy="12" r="9" stroke="currentColor" fill="none" stroke-width="2" />
        <path d="M12 7v5l3.5 0" stroke="currentColor" fill="none" stroke-width="2"
            stroke-linecap="round" />
    </symbol>

    <!-- Trending Up Icon-->
    <symbol id="trendingUp" viewBox="0 0 24 24">
        <path d="M3 17l6 -6l4 4l8 -8" stroke="currentColor" fill="none" stroke-width="2"
            stroke-linecap="round" stroke-linejoin="round" />
        <path d="M14 7l7 0l0 7" stroke="currentColor" fill="none" stroke-width="2"
            stroke-linecap="round" stroke-linejoin="round" />
    </symbol>

    <!--Star
    Icon-->
    <symbol id="star" viewBox="0 0 24 24">
        <path stroke="none" d="M0 0h24v24H0z" fill="none" />
        <path
            d="M12 17.75l-6.172 3.245l1.179 -6.873l-5 -4.867l6.9 -1l3.086 -6.253l3.086 6.253l6.9 1l-5 4.867l1.179 6.873l-6.158 -3.245"
            stroke="currentColor" fill="none" stroke-width="2" stroke-linecap="round"
            stroke-linejoin="round" />
    </symbol>

    <!-- <svg xmlns="http://www.w3.org/2000/svg" width="24" height="24" viewBox="0 0 24 24"
        fill="currentColor" class="icon icon-tabler icons-tabler-filled icon-tabler-star">
        <path stroke="none" d="M0 0h24v24H0z" fill="none" />
        <path
            d="M8.243 7.34l-6.38 .925l-.113 .023a1 1 0 0 0 -.44 1.684l4.622 4.499l-1.09 6.355l-.013 .11a1 1 0 0
    0 1.464 .944l5.706 -3l5.693 3l.1 .046a1 1 0 0 0 1.352 -1.1l-1.091 -6.355l4.624 -4.5l.078 -.085a1
    1 0 0 0 -.633 -1.62l-6.38 -.926l-2.852 -5.78a1 1 0 0 0 -1.794 0l-2.853 5.78z" />
    </svg> -->

</svg>