<svg xmlns="http://www.w3.org/2000/svg" fill="#000000" class="bi bi-steam" viewBox="0 0 24 24" id="Steam--Streamline-Bootstrap" height="24" width="24">
  <desc>
    Steam Streamline Icon: https://streamlinehq.com
  </desc>
  <path d="M0.49350000000000005 15.499500000000001A12.015 12.015 0 0 0 11.985 24C18.621 24 24 18.627 24 12s-5.379 -12 -12.0135 -12A12.009 12.009 0 0 0 0 11.202l0.0045000000000000005 0.009000000000000001 6.456 2.6534999999999997A3.3000000000000003 3.3000000000000003 0 0 1 8.43 13.32l2.94 -4.266 -0.0015 -0.06a4.569 4.569 0 0 1 4.563 -4.564500000000001 4.569 4.569 0 0 1 4.563 4.564500000000001 4.5705 4.5705 0 0 1 -4.6665 4.566l-4.2059999999999995 3a3.3345 3.3345 0 0 1 -4.612500000000001 3.165 3.33 3.33 0 0 1 -1.968 -2.3520000000000003L0.495 15.499500000000001Z" stroke-width="1.5"></path>
  <path d="M7.3020000000000005 19.0245a2.5725000000000002 2.5725000000000002 0 0 0 1.977 -4.7475000000000005 2.55 2.55 0 0 0 -1.8944999999999999 -0.03l1.5345 0.636a1.8914999999999997 1.8914999999999997 0 1 1 -1.455 3.495l-1.4849999999999999 -0.615a2.55 2.55 0 0 0 1.323 1.26Zm5.589 -10.0305a3.045 3.045 0 0 0 3.0405 3.0435 3.045 3.045 0 0 0 3.0405 -3.0435 3.045 3.045 0 0 0 -3.0405 -3.0405 3.045 3.045 0 0 0 -3.0405 3.0405m3.045 -2.2904999999999998a2.286 2.286 0 1 1 -0.003 4.572 2.286 2.286 0 0 1 0.003 -4.572" stroke-width="1.5"></path>
</svg>